<svg xmlns="http://www.w3.org/2000/svg" viewBox="0 0 43 30">
    <g transform="translate(.5 .5)">
        <path fill="#FFC700"
              d="M20.266 0c0 9.242-6.544 16.733-14.616 16.733H0V7.407A7.408 7.408 0 0 1 7.408 0h12.858z"/>
        <path fill="#8453FA"
              d="M20.266 29.192c0-9.242-6.544-16.733-14.616-16.733H0v9.326a7.408 7.408 0 0 0 7.408 7.407h12.858z"/>
        <path transform="translate(21 12.192)" fill="#00D6E9"
              d="M.596 17C.596 7.758 7.14.267 15.212.267h5.65v9.326A7.407 7.407 0 0 1 13.455 17H.596z"/>
        <path fill="#FF3383" transform="translate(21 -.808)"
              d="M.596.808c0 9.242 6.544 16.733 14.616 16.733h5.65V8.215A7.407 7.407 0 0 0 13.455.808H.596z"/>
    </g>
</svg>